<svg width="360" height="70" viewBox="0 0 360 70" fill="none" xmlns="http://www.w3.org/2000/svg">
<path d="M133.898 58.1212L127.05 48.2012L121.29 58.1212H109.45L121.226 39.8812L109.13 22.4092H121.418L128.266 32.2652L134.026 22.4092H145.866L133.898 40.3932L146.186 58.1212H133.898Z" fill="#1C142F"/>
<path d="M148.227 40.2012C148.227 36.5319 148.909 33.3106 150.275 30.5372C151.683 27.7639 153.581 25.6306 155.971 24.1372C158.36 22.6439 161.027 21.8972 163.971 21.8972C166.488 21.8972 168.685 22.4092 170.563 23.4332C172.483 24.4572 173.955 25.8012 174.979 27.4652V22.4092H185.923V58.1212H174.979V53.0652C173.912 54.7292 172.419 56.0732 170.499 57.0972C168.621 58.1212 166.424 58.6332 163.907 58.6332C161.005 58.6332 158.36 57.8866 155.971 56.3932C153.581 54.8572 151.683 52.7026 150.275 49.9292C148.909 47.1132 148.227 43.8706 148.227 40.2012ZM174.979 40.2652C174.979 37.5346 174.211 35.3799 172.675 33.8012C171.181 32.2226 169.347 31.4332 167.171 31.4332C164.995 31.4332 163.139 32.2226 161.603 33.8012C160.109 35.3372 159.363 37.4706 159.363 40.2012C159.363 42.9319 160.109 45.1079 161.603 46.7292C163.139 48.3079 164.995 49.0972 167.171 49.0972C169.347 49.0972 171.181 48.3079 172.675 46.7292C174.211 45.1506 174.979 42.9959 174.979 40.2652Z" fill="#1C142F"/>
<path d="M215.6 22.0252C219.781 22.0252 223.109 23.3906 225.584 26.1212C228.101 28.8092 229.36 32.5212 229.36 37.2572V58.1212H218.48V38.7292C218.48 36.3399 217.861 34.4839 216.624 33.1612C215.387 31.8386 213.723 31.1772 211.632 31.1772C209.541 31.1772 207.877 31.8386 206.64 33.1612C205.403 34.4839 204.784 36.3399 204.784 38.7292V58.1212H193.84V22.4092H204.784V27.1452C205.893 25.5666 207.387 24.3292 209.264 23.4332C211.141 22.4946 213.253 22.0252 215.6 22.0252Z" fill="#1C142F"/>
<path d="M234.789 40.2012C234.789 36.5319 235.472 33.3106 236.837 30.5372C238.245 27.7639 240.144 25.6306 242.533 24.1372C244.922 22.6439 247.589 21.8972 250.533 21.8972C253.05 21.8972 255.248 22.4092 257.125 23.4332C259.045 24.4572 260.517 25.8012 261.541 27.4652V22.4092H272.485V58.1212H261.541V53.0652C260.474 54.7292 258.981 56.0732 257.061 57.0972C255.184 58.1212 252.986 58.6332 250.469 58.6332C247.568 58.6332 244.922 57.8866 242.533 56.3932C240.144 54.8572 238.245 52.7026 236.837 49.9292C235.472 47.1132 234.789 43.8706 234.789 40.2012ZM261.541 40.2652C261.541 37.5346 260.773 35.3799 259.237 33.8012C257.744 32.2226 255.909 31.4332 253.733 31.4332C251.557 31.4332 249.701 32.2226 248.165 33.8012C246.672 35.3372 245.925 37.4706 245.925 40.2012C245.925 42.9319 246.672 45.1079 248.165 46.7292C249.701 48.3079 251.557 49.0972 253.733 49.0972C255.909 49.0972 257.744 48.3079 259.237 46.7292C260.773 45.1506 261.541 42.9959 261.541 40.2652Z" fill="#1C142F"/>
<path d="M278.227 40.2012C278.227 36.5319 278.909 33.3106 280.275 30.5372C281.683 27.7639 283.581 25.6306 285.971 24.1372C288.36 22.6439 291.027 21.8972 293.971 21.8972C296.317 21.8972 298.451 22.3879 300.371 23.3692C302.333 24.3506 303.869 25.6732 304.979 27.3372V10.7612H315.923V58.1212H304.979V53.0012C303.955 54.7079 302.483 56.0732 300.563 57.0972C298.685 58.1212 296.488 58.6332 293.971 58.6332C291.027 58.6332 288.36 57.8866 285.971 56.3932C283.581 54.8572 281.683 52.7026 280.275 49.9292C278.909 47.1132 278.227 43.8706 278.227 40.2012ZM304.979 40.2652C304.979 37.5346 304.211 35.3799 302.675 33.8012C301.181 32.2226 299.347 31.4332 297.171 31.4332C294.995 31.4332 293.139 32.2226 291.603 33.8012C290.109 35.3372 289.363 37.4706 289.363 40.2012C289.363 42.9319 290.109 45.1079 291.603 46.7292C293.139 48.3079 294.995 49.0972 297.171 49.0972C299.347 49.0972 301.181 48.3079 302.675 46.7292C304.211 45.1506 304.979 42.9959 304.979 40.2652Z" fill="#1C142F"/>
<path d="M359.104 22.4092V58.1212H348.16V53.2572C347.051 54.8359 345.536 56.1159 343.616 57.0972C341.739 58.0359 339.648 58.5052 337.344 58.5052C334.613 58.5052 332.203 57.9079 330.112 56.7132C328.021 55.4759 326.4 53.7052 325.248 51.4012C324.096 49.0972 323.52 46.3879 323.52 43.2732V22.4092H334.4V41.8012C334.4 44.1906 335.019 46.0466 336.256 47.3692C337.493 48.6919 339.157 49.3532 341.248 49.3532C343.381 49.3532 345.067 48.6919 346.304 47.3692C347.541 46.0466 348.16 44.1906 348.16 41.8012V22.4092H359.104Z" fill="#1C142F"/>
<path d="M40.7887 69.3945H2C0.895431 69.3945 0 68.4991 0 67.3945V43.7422C0 42.618 0.928051 41.7087 2.04751 41.8113C14.025 42.9082 24.9002 50.7983 32.0721 57.929C33.6254 59.4734 36.3856 57.9806 35.5158 55.9702C27.3429 37.0813 10.9244 28.5244 1.59583 26.1448C0.669547 25.9085 0 25.0935 0 24.1376V2.43654C0 1.17546 1.16426 0.229593 2.39125 0.520873C34.6319 8.17464 42.7887 36.2566 42.7887 49.6459V67.3945C42.7887 68.4991 41.8933 69.3945 40.7887 69.3945Z" fill="#ED5A23"/>
<path d="M48.5997 69.3945H87.3884C88.493 69.3945 89.3884 68.4991 89.3884 67.3945V43.7422C89.3884 42.618 88.4604 41.7087 87.3409 41.8113C75.3634 42.9082 64.4882 50.7983 57.3163 57.929C55.763 59.4734 53.0028 57.9806 53.8726 55.9702C62.0456 37.0813 78.4641 28.5244 87.7926 26.1448C88.7189 25.9085 89.3884 25.0935 89.3884 24.1376V2.43654C89.3884 1.17546 88.2242 0.229593 86.9972 0.520873C54.7566 8.17464 46.5997 36.2566 46.5997 49.6459V67.3945C46.5997 68.4991 47.4952 69.3945 48.5997 69.3945Z" fill="#ED5A23"/>
</svg>
